<?xml version="1.0" encoding="utf-8"?>
<!-- Generator: Adobe Illustrator 16.0.0, SVG Export Plug-In . SVG Version: 6.00 Build 0)  -->
<!DOCTYPE svg PUBLIC "-//W3C//DTD SVG 1.1//EN" "http://www.w3.org/Graphics/SVG/1.1/DTD/svg11.dtd">
<svg version="1.1" id="Layer_1" xmlns="http://www.w3.org/2000/svg" xmlns:xlink="http://www.w3.org/1999/xlink" x="0px" y="0px"
	 width="16px" height="16px" viewBox="0 0 16 16" enable-background="new 0 0 16 16" xml:space="preserve">
<path fill="#797979" d="M5.512,11.023c-1.473,0-2.857-0.574-3.897-1.616C0.573,8.367,0,6.983,0,5.511s0.573-2.856,1.615-3.896
	C2.655,0.573,4.04,0,5.512,0c1.472,0,2.856,0.573,3.896,1.615c1.041,1.041,1.615,2.425,1.615,3.896c0,1.472-0.574,2.856-1.615,3.896
	C8.368,10.449,6.984,11.023,5.512,11.023z M5.512,1.455c-1.084,0-2.103,0.422-2.869,1.188C1.876,3.409,1.455,4.428,1.455,5.511
	s0.422,2.102,1.188,2.868C3.41,9.146,4.428,9.568,5.512,9.568c1.083,0,2.102-0.422,2.868-1.189c0.766-0.766,1.188-1.784,1.188-2.868
	S9.146,3.409,8.38,2.643C7.614,1.876,6.596,1.455,5.512,1.455z"/>
<path fill="#797979" d="M5.449,3.786c0.392,0.392,0.392,1.027,0,1.417c-0.392,0.393-1.026,0.393-1.418,0
	c-0.392-0.391-0.392-1.026,0-1.417C4.423,3.394,5.058,3.394,5.449,3.786"/>
<path fill="#797979" d="M13.066,15c-0.193,0-0.377-0.077-0.514-0.214l-4.608-4.608c-0.284-0.284-0.284-0.744,0-1.028
	c0.285-0.284,0.744-0.284,1.028,0l4.094,4.095l1.691-1.693c0.285-0.284,0.746-0.284,1.029,0s0.283,0.744,0,1.028l-2.207,2.207
	C13.443,14.923,13.26,15,13.066,15z"/>
<path fill="#797979" d="M10.748,12.68c-0.188,0-0.373-0.07-0.514-0.213c-0.285-0.284-0.285-0.745,0-1.028l2.209-2.207
	c0.285-0.284,0.744-0.283,1.027,0.001c0.285,0.284,0.285,0.745,0,1.028l-2.209,2.206C11.119,12.609,10.934,12.68,10.748,12.68z"/>
</svg>
