<?xml version="1.0" encoding="utf-8"?>
<!-- Generator: Adobe Illustrator 16.0.0, SVG Export Plug-In . SVG Version: 6.00 Build 0)  -->
<!DOCTYPE svg PUBLIC "-//W3C//DTD SVG 1.1//EN" "http://www.w3.org/Graphics/SVG/1.1/DTD/svg11.dtd">
<svg version="1.1" id="Layer_2" xmlns="http://www.w3.org/2000/svg" xmlns:xlink="http://www.w3.org/1999/xlink" x="0px" y="0px"
	 width="120px" height="120px" viewBox="0 0 120 120" enable-background="new 0 0 120 120" xml:space="preserve">
<g id="XMLID_4574_">
	<g id="XMLID_4570_">
		
			<rect id="XMLID_151_" x="35.032" y="90.787" transform="matrix(0.9237 0.383 -0.383 0.9237 39.803 -6.2982)" fill="#272525" width="1.374" height="12.052"/>
	</g>
	<g id="XMLID_4569_">
		
			<rect id="XMLID_150_" x="71.076" y="2.878" transform="matrix(0.9239 0.3827 -0.3827 0.9239 9.2119 -26.7178)" fill="#272525" width="1.374" height="13.836"/>
	</g>
	<path fill="none" d="M25.16,29.209c0.262,0.342,0.375,0.766,0.319,1.193l-0.111,0.842c-0.037,0.282-0.148,0.55-0.322,0.776
		l-4.879,6.299c-0.045,0.058-0.061,0.133-0.043,0.205l1.904,7.573c0.024,0.097,0.104,0.168,0.202,0.18l2.237,0.293
		c0.263,0.035,0.514,0.134,0.729,0.287l1.833,1.313c0.154,0.109,0.289,0.246,0.397,0.407l2.775,4.093
		c0.314,0.463,0.364,1.068,0.131,1.578l-2.227,4.863c-0.033,0.072-0.028,0.157,0.014,0.224l2.852,4.674l3.07,1.76
		c0.501,0.28,0.817,0.813,0.824,1.389l0.088,7.989c0,0.05,0.016,0.098,0.044,0.137l4.386,6.048c0.039,0.054,0.099,0.09,0.164,0.099
		l0.499,0.065c0.121,0.027,0.19-0.05,0.222-0.091c0.031-0.041,0.078-0.127,0.033-0.238l-1.759-4.336
		c-0.154-0.377-0.159-0.794-0.015-1.176l3.323-8.801c0.188-0.492,0.602-0.861,1.111-0.992l2.18-0.555
		c0.096-0.025,0.166-0.104,0.179-0.202l0.735-5.582c0.015-0.113-0.053-0.222-0.161-0.258l-4.178-1.423
		c-0.41-0.14-0.753-0.445-0.939-0.839l-0.814-1.729c-0.021-0.043-0.055-0.081-0.097-0.105l-6.508-3.712
		c-0.066-0.039-0.146-0.039-0.217-0.011l-1.16,0.519c-0.607,0.271-1.332,0.138-1.802-0.333l-1.175-1.181
		c-0.203-0.201-0.35-0.459-0.421-0.741l-0.716-2.808c-0.024-0.094-0.104-0.165-0.202-0.177l-1.242-0.164
		c-0.427-0.057-0.807-0.276-1.07-0.619c-0.262-0.342-0.376-0.766-0.319-1.193l0.272-2.069c0.07-0.534,0.402-0.997,0.887-1.235
		l2.318-1.141c0.753-0.372,1.675-0.094,2.1,0.625l0.75,1.262c0.038,0.064,0.102,0.106,0.176,0.116l0.181,0.025
		c0.127,0.013,0.25-0.078,0.268-0.208l0.273-2.077c0.037-0.285,0.151-0.556,0.33-0.784l4.999-6.372
		c0.351-0.446,0.919-0.669,1.48-0.605l3.957,0.522c0.348,0.044,0.68,0.208,0.933,0.461l1.02,1.021
		c0.086,0.084,0.216,0.095,0.313,0.024l3.021-2.222c0.1-0.074,0.127-0.213,0.062-0.319l-1.442-2.328
		c-0.439-0.708-0.271-1.625,0.39-2.131l2.532-1.942c0.083-0.064,0.094-0.15,0.093-0.195c-0.001-0.045-0.016-0.131-0.102-0.191
		l-1.721-1.208c-0.086-0.061-0.2-0.061-0.284,0.005l-1.875,1.438c-0.708,0.541-1.722,0.407-2.263-0.298l-0.947-1.234
		c-0.039-0.051-0.096-0.083-0.16-0.091l-2.875-0.378c-0.129-0.021-0.251,0.074-0.269,0.205l-0.083,0.636
		c-0.056,0.427-0.275,0.808-0.617,1.069c-0.342,0.263-0.766,0.378-1.194,0.321l-2.41-0.316c-0.064-0.01-0.127,0.008-0.177,0.047
		l-4.291,3.291c-0.341,0.263-0.766,0.378-1.193,0.32l-7.794-1.026c-0.124,0.151-0.25,0.299-0.372,0.452l2.771,0.365
		C24.518,28.648,24.897,28.867,25.16,29.209z"/>
	<path fill="none" d="M53.985,40.233l1.622,0.213c0.454,0.062,0.861,0.312,1.119,0.687l0.72,1.049
		c0.039,0.056,0.1,0.094,0.168,0.103l3.464,0.455c0.117,0.013,0.251-0.075,0.269-0.206l0.113-0.862
		c0.017-0.125-0.064-0.24-0.188-0.267l-2.745-0.585c-0.278-0.062-0.534-0.193-0.742-0.38l-1.571-1.414
		c-0.077-0.071-0.189-0.085-0.278-0.032l-2.179,1.225c0.006,0,0.012,0,0.017,0C53.845,40.22,53.915,40.224,53.985,40.233z"/>
	<path fill="none" d="M66.665,27.932l-3.896,2.504c-0.316,0.206-0.703,0.285-1.082,0.243l-4.724-0.621
		c-0.08-0.01-0.163,0.02-0.216,0.084l-4.858,5.845c-0.04,0.048-0.059,0.107-0.056,0.167l0.185,3.071
		c0.008,0.115,0.082,0.173,0.125,0.197c0.044,0.022,0.13,0.056,0.231-0.003l2.887-1.623c0.605-0.34,1.357-0.256,1.872,0.208
		l1.57,1.413l2.856,0.644c0.817,0.177,1.372,0.962,1.263,1.79l-0.113,0.861c-0.115,0.88-0.926,1.506-1.809,1.39l-3.467-0.456
		c-0.453-0.062-0.86-0.311-1.119-0.686l-0.721-1.05c-0.039-0.057-0.1-0.094-0.168-0.104l-1.619-0.212
		c-0.07-0.013-0.147,0.015-0.2,0.067l-2.776,2.693c-0.053,0.052-0.079,0.126-0.071,0.199l1.019,8.896l2.553,3.679
		c0.06,0.088,0.176,0.122,0.275,0.09l2.428-0.84c0.237-0.082,0.491-0.103,0.738-0.075l2.118,0.279
		c0.764,0.101,1.354,0.732,1.399,1.502l0.298,4.856c0.006,0.106,0.003,0.208-0.011,0.312l-0.663,5.029l0.872,5.365
		c0.018,0.105,0.101,0.186,0.206,0.199l2.634,0.348c0.095,0.014,0.193-0.035,0.24-0.123l3.108-5.637
		c0.325-0.588,0.961-0.911,1.624-0.822c0.125,0.016,0.252-0.076,0.271-0.205l0.307-2.338c0.117-0.883,0.924-1.504,1.811-1.39
		l0.792,0.104c0.134,0.016,0.252-0.075,0.268-0.207l0.529-4.015c0.011-0.076-0.018-0.154-0.075-0.207l-2.584-2.378
		c-0.361-0.333-0.55-0.807-0.516-1.297c0.032-0.491,0.285-0.934,0.688-1.216l1.979-1.374c0.078-0.054,0.097-0.13,0.103-0.172
		c0.003-0.04,0.001-0.12-0.064-0.189l-5.222-5.579c-0.471-0.504-0.571-1.228-0.255-1.842c0.315-0.613,0.959-0.948,1.645-0.861
		l2.311,0.305c0.421,0.057,0.811,0.28,1.069,0.617l3.425,4.465c0.041,0.051,0.097,0.083,0.157,0.091l1.034,0.137
		c0.632,0.082,1.158,0.533,1.337,1.148l1.542,5.292c0.041,0.137,0.149,0.167,0.21,0.172c0.059,0,0.174-0.005,0.236-0.134
		l1.893-3.891c0.305-0.625,0.977-0.985,1.662-0.895l1.589,0.209c0.703,0.094,1.271,0.648,1.383,1.348l0.471,2.97
		c0.017,0.105,0.1,0.185,0.204,0.199l5.737,0.755c0.907-9.8-1.764-19.166-6.984-26.744l-19.724-2.597
		C66.772,27.889,66.713,27.9,66.665,27.932z"/>
	<path fill="none" d="M87.621,57.845c-0.703-0.091-1.273-0.646-1.385-1.347l-0.47-2.97c-0.016-0.106-0.099-0.187-0.206-0.2
		l-1.589-0.209c-0.104-0.015-0.201,0.039-0.247,0.131l-1.892,3.892c-0.295,0.605-0.913,0.957-1.588,0.901
		c-0.671-0.056-1.224-0.51-1.413-1.156l-1.542-5.292c-0.026-0.091-0.104-0.157-0.198-0.169l-1.031-0.137
		c-0.418-0.054-0.81-0.278-1.069-0.617l-3.426-4.465c-0.038-0.05-0.096-0.083-0.159-0.091l-2.311-0.305
		c-0.15-0.025-0.209,0.059-0.244,0.127c-0.029,0.057-0.062,0.167,0.038,0.274l5.222,5.578c0.32,0.344,0.475,0.808,0.426,1.274
		c-0.051,0.467-0.3,0.887-0.684,1.155l-1.978,1.373c-0.083,0.056-0.1,0.138-0.104,0.181c-0.003,0.043,0.004,0.125,0.076,0.192
		l2.584,2.378c0.386,0.355,0.574,0.877,0.508,1.397l-0.529,4.016c-0.118,0.883-0.926,1.508-1.811,1.391l-0.792-0.105
		c-0.14-0.013-0.252,0.076-0.269,0.207l-0.309,2.338c-0.116,0.881-0.938,1.502-1.81,1.388c-0.093-0.013-0.194,0.038-0.243,0.122
		l-3.106,5.638c-0.287,0.523-0.827,0.836-1.409,0.836c-0.071,0-0.142-0.004-0.215-0.014l-2.634-0.347
		c-0.711-0.096-1.266-0.634-1.382-1.34l-0.871-5.295c-0.026-0.157-0.028-0.316-0.007-0.474l0.662-5.031l-0.296-4.902
		c-0.007-0.114-0.094-0.208-0.208-0.223l-2.119-0.279l-2.539,0.851c-0.679,0.233-1.437-0.015-1.847-0.597l-2.51-3.569
		c-0.155-0.223-0.253-0.48-0.283-0.746l-1.019-8.895c-0.057-0.492,0.122-0.994,0.479-1.34l2.642-2.565
		c-0.346,0.06-0.707-0.001-1.029-0.176c-0.493-0.267-0.807-0.761-0.841-1.32l-0.185-3.071c-0.025-0.412,0.107-0.813,0.37-1.13
		l4.858-5.845c0.356-0.428,0.895-0.643,1.452-0.569l4.723,0.621c0.051,0.007,0.111-0.004,0.157-0.034l3.899-2.507
		c0.322-0.205,0.707-0.287,1.083-0.243L85.44,28.96c-6.328-8.331-15.85-14.232-27.041-15.705
		c-13.858-1.825-27.001,3.568-35.649,13.271l6.915,0.911c0.063,0.009,0.126-0.008,0.176-0.047l4.291-3.291
		c0.342-0.262,0.764-0.377,1.194-0.321l2.41,0.316c0.09,0.014,0.148-0.024,0.178-0.047c0.029-0.023,0.081-0.072,0.092-0.158
		l0.084-0.637c0.117-0.883,0.936-1.508,1.811-1.389l2.875,0.378c0.427,0.056,0.807,0.276,1.069,0.617l0.947,1.234
		c0.082,0.104,0.233,0.126,0.337,0.044l1.875-1.437c0.562-0.434,1.332-0.447,1.91-0.041l1.719,1.208
		c0.425,0.298,0.676,0.768,0.687,1.287c0.011,0.518-0.219,0.997-0.631,1.313l-2.532,1.942c-0.099,0.077-0.124,0.212-0.059,0.317
		l1.442,2.328c0.441,0.711,0.259,1.656-0.415,2.15l-3.021,2.222c-0.648,0.476-1.531,0.409-2.099-0.16l-1.021-1.022
		c-0.038-0.039-0.085-0.062-0.134-0.068l-3.961-0.522c-0.076-0.011-0.167,0.023-0.219,0.09l-4.998,6.37l-0.323,2.193
		c-0.117,0.883-0.924,1.508-1.811,1.39l-0.182-0.026c-0.494-0.065-0.923-0.349-1.176-0.778l-0.749-1.261
		c-0.064-0.11-0.2-0.15-0.312-0.093l-2.318,1.139c-0.072,0.036-0.122,0.104-0.132,0.184l-0.272,2.068
		c-0.015,0.113,0.095,0.254,0.207,0.269l1.242,0.164c0.658,0.087,1.189,0.558,1.353,1.201l0.716,2.81l1.238,1.289
		c0.07,0.07,0.178,0.091,0.269,0.048l1.16-0.518c0.472-0.209,1.014-0.181,1.459,0.069l6.505,3.712
		c0.289,0.164,0.517,0.411,0.66,0.712l0.814,1.729c0.027,0.058,0.078,0.103,0.139,0.124l4.179,1.423
		c0.726,0.247,1.18,0.978,1.08,1.739l-0.735,5.583c-0.086,0.656-0.558,1.187-1.2,1.352l-2.18,0.556
		c-0.076,0.021-0.138,0.075-0.167,0.149l-3.322,8.798c-0.021,0.056-0.021,0.118,0.002,0.175l1.759,4.337
		c0.218,0.538,0.136,1.134-0.219,1.594c-0.311,0.401-0.775,0.627-1.271,0.627c-0.071,0-0.144-0.005-0.216-0.014l-0.5-0.066
		c-0.438-0.059-0.838-0.296-1.096-0.654l-4.385-6.046c-0.194-0.266-0.304-0.596-0.308-0.93l-0.087-7.988
		c-0.001-0.086-0.048-0.166-0.123-0.209l-2.983-1.674c-0.242-0.135-0.445-0.331-0.588-0.567l-2.851-4.673
		c-0.28-0.459-0.313-1.023-0.09-1.512l2.227-4.864c0.035-0.076,0.028-0.165-0.02-0.236l-2.775-4.093l-1.892-1.373l-2.346-0.335
		c-0.661-0.087-1.192-0.562-1.355-1.208l-1.904-7.573c-0.122-0.483-0.017-0.986,0.288-1.382l4.878-6.297l0.159-0.958
		c0.018-0.132-0.076-0.251-0.207-0.269l-3.555-0.468c-3.924,5.335-6.6,11.705-7.526,18.736C9.902,70.461,25.558,90.863,47.797,93.79
		c22.241,2.929,42.642-12.727,45.57-34.966c0.01-0.073,0.014-0.146,0.023-0.219L87.621,57.845z M82.032,77.297l-5.482,4.357
		c-0.362,0.285-0.793,0.468-1.248,0.529l-1.422,0.189c-0.115,0.015-0.228,0.021-0.341,0.021c-0.833,0-1.613-0.405-2.094-1.106
		c-0.545-0.796-0.595-1.815-0.132-2.659c0.076-0.14,0.122-0.278,0.141-0.422l0.416-3.16c0.072-0.557,0.334-1.083,0.735-1.479
		l5.673-5.599c0.561-0.554,1.333-0.817,2.116-0.712l0.163,0.022c0.709,0.093,1.354,0.487,1.762,1.079
		c0.407,0.594,0.544,1.336,0.377,2.035l-0.346,1.434c-0.042,0.18-0.042,0.37,0.002,0.55l0.568,2.323
		C83.156,75.662,82.808,76.681,82.032,77.297z"/>
	<path fill="none" d="M81.018,72.705c-0.096-0.391-0.097-0.806-0.003-1.199l0.345-1.433c0.079-0.326,0.018-0.659-0.173-0.935
		c-0.19-0.277-0.478-0.454-0.811-0.497l-0.161-0.022c-0.051-0.007-0.102-0.01-0.152-0.01c-0.305,0-0.599,0.118-0.818,0.337
		l-5.674,5.601c-0.184,0.182-0.305,0.424-0.338,0.68l-0.416,3.161c-0.042,0.313-0.14,0.611-0.291,0.889
		c-0.223,0.407-0.201,0.864,0.054,1.234c0.255,0.373,0.679,0.565,1.118,0.499l1.424-0.188c0.211-0.027,0.409-0.111,0.575-0.244
		l5.482-4.356c0.355-0.283,0.517-0.752,0.407-1.193L81.018,72.705z"/>
	<path fill="#272525" d="M65.923,26.775l-3.899,2.507c-0.046,0.03-0.106,0.041-0.157,0.034l-4.723-0.621
		c-0.558-0.074-1.096,0.141-1.452,0.569l-4.858,5.845c-0.263,0.317-0.395,0.718-0.37,1.13l0.185,3.071
		c0.034,0.56,0.348,1.053,0.841,1.32c0.322,0.174,0.683,0.236,1.029,0.176l-2.642,2.565c-0.357,0.346-0.536,0.848-0.479,1.34
		l1.019,8.895c0.03,0.266,0.128,0.523,0.283,0.746l2.51,3.569c0.41,0.583,1.168,0.831,1.847,0.597l2.539-0.851l2.119,0.279
		c0.114,0.015,0.201,0.109,0.208,0.223l0.296,4.902l-0.662,5.031c-0.021,0.157-0.019,0.316,0.007,0.474l0.871,5.295
		c0.116,0.706,0.671,1.244,1.382,1.34l2.634,0.347c0.073,0.01,0.144,0.014,0.215,0.014c0.582,0,1.122-0.313,1.409-0.836l3.106-5.638
		c0.049-0.084,0.15-0.135,0.243-0.122c0.871,0.114,1.693-0.507,1.81-1.388l0.309-2.338c0.017-0.131,0.129-0.22,0.269-0.207
		l0.792,0.105c0.885,0.117,1.692-0.508,1.811-1.391l0.529-4.016c0.066-0.52-0.122-1.042-0.508-1.397l-2.584-2.378
		c-0.072-0.067-0.079-0.149-0.076-0.192c0.004-0.043,0.021-0.125,0.104-0.181l1.978-1.373c0.384-0.268,0.633-0.688,0.684-1.155
		c0.049-0.467-0.105-0.931-0.426-1.274l-5.222-5.578c-0.1-0.107-0.067-0.217-0.038-0.274c0.035-0.068,0.094-0.153,0.244-0.127
		l2.311,0.305c0.063,0.008,0.121,0.042,0.159,0.091l3.426,4.465c0.26,0.339,0.651,0.563,1.069,0.617l1.031,0.137
		c0.094,0.012,0.172,0.078,0.198,0.169l1.542,5.292c0.189,0.646,0.742,1.1,1.413,1.156c0.675,0.055,1.293-0.296,1.588-0.901
		l1.892-3.892c0.046-0.093,0.144-0.146,0.247-0.131l1.589,0.209c0.107,0.014,0.19,0.094,0.206,0.2l0.47,2.97
		c0.111,0.702,0.682,1.256,1.385,1.347l5.77,0.76c0.058-0.457,0.103-0.913,0.145-1.368l-5.737-0.755
		c-0.104-0.014-0.188-0.094-0.204-0.199l-0.471-2.97c-0.111-0.7-0.68-1.254-1.383-1.348l-1.589-0.209
		c-0.686-0.09-1.357,0.27-1.662,0.895l-1.893,3.891c-0.063,0.129-0.178,0.134-0.236,0.134c-0.061-0.005-0.169-0.035-0.21-0.172
		l-1.542-5.292c-0.179-0.616-0.705-1.066-1.337-1.148l-1.034-0.137c-0.061-0.008-0.116-0.04-0.157-0.091l-3.425-4.465
		c-0.259-0.337-0.648-0.561-1.069-0.617l-2.311-0.305c-0.686-0.087-1.329,0.249-1.645,0.861c-0.316,0.615-0.216,1.338,0.255,1.842
		l5.222,5.579c0.065,0.069,0.067,0.149,0.064,0.189c-0.006,0.042-0.024,0.118-0.103,0.172l-1.979,1.374
		c-0.403,0.282-0.656,0.725-0.688,1.216c-0.034,0.491,0.154,0.964,0.516,1.297l2.584,2.378c0.058,0.052,0.086,0.13,0.075,0.207
		l-0.529,4.015c-0.016,0.132-0.134,0.223-0.268,0.207l-0.792-0.104c-0.887-0.114-1.693,0.507-1.811,1.39l-0.307,2.338
		c-0.019,0.129-0.146,0.221-0.271,0.205c-0.663-0.089-1.299,0.234-1.624,0.822l-3.108,5.637c-0.047,0.088-0.146,0.137-0.24,0.123
		l-2.634-0.348c-0.105-0.014-0.188-0.094-0.206-0.199l-0.872-5.365l0.663-5.029c0.014-0.104,0.017-0.205,0.011-0.312l-0.298-4.856
		c-0.046-0.77-0.635-1.402-1.399-1.502l-2.118-0.279c-0.248-0.028-0.501-0.007-0.738,0.075l-2.428,0.84
		c-0.1,0.032-0.215-0.001-0.275-0.09l-2.553-3.679l-1.019-8.896c-0.008-0.073,0.018-0.146,0.071-0.199l2.776-2.693
		c0.053-0.052,0.13-0.08,0.2-0.067l1.619,0.212c0.068,0.009,0.129,0.047,0.168,0.104l0.721,1.05
		c0.258,0.375,0.666,0.624,1.119,0.686l3.467,0.456c0.883,0.117,1.694-0.51,1.809-1.39l0.113-0.861
		c0.109-0.828-0.445-1.613-1.263-1.79l-2.856-0.644l-1.57-1.413c-0.515-0.464-1.267-0.547-1.872-0.208l-2.887,1.623
		c-0.101,0.059-0.188,0.025-0.231,0.003c-0.043-0.024-0.118-0.082-0.125-0.197l-0.185-3.071c-0.003-0.06,0.016-0.119,0.056-0.167
		l4.858-5.845c0.053-0.064,0.136-0.094,0.216-0.084l4.724,0.621c0.379,0.042,0.766-0.038,1.082-0.243l3.896-2.504
		c0.048-0.032,0.107-0.043,0.162-0.037l19.724,2.597c-0.358-0.52-0.729-1.03-1.11-1.533l-18.435-2.427
		C66.63,26.488,66.245,26.57,65.923,26.775z M55.937,38.995c0.088-0.053,0.201-0.039,0.278,0.032l1.571,1.414
		c0.208,0.187,0.463,0.318,0.742,0.38l2.745,0.585c0.124,0.027,0.205,0.142,0.188,0.267l-0.113,0.862
		c-0.018,0.13-0.151,0.219-0.269,0.206l-3.464-0.455c-0.068-0.009-0.13-0.047-0.168-0.103l-0.72-1.049
		c-0.258-0.375-0.665-0.625-1.119-0.687l-1.622-0.213c-0.07-0.009-0.14-0.013-0.21-0.013c-0.005,0-0.011,0-0.017,0L55.937,38.995z"
		/>
	<path fill="#272525" d="M24.117,30.222l-0.159,0.958l-4.878,6.297c-0.305,0.396-0.41,0.899-0.288,1.382l1.904,7.573
		c0.163,0.646,0.694,1.12,1.355,1.208l2.346,0.335l1.892,1.373l2.775,4.093c0.048,0.071,0.055,0.16,0.02,0.236l-2.227,4.864
		c-0.223,0.488-0.19,1.053,0.09,1.512l2.851,4.673c0.144,0.236,0.347,0.433,0.588,0.567l2.983,1.674
		c0.075,0.043,0.122,0.123,0.123,0.209l0.087,7.988c0.003,0.334,0.114,0.664,0.308,0.93l4.385,6.046
		c0.258,0.358,0.658,0.596,1.096,0.654l0.5,0.066c0.072,0.009,0.145,0.014,0.216,0.014c0.497,0,0.961-0.226,1.271-0.627
		c0.354-0.46,0.437-1.056,0.219-1.594l-1.759-4.337c-0.023-0.057-0.024-0.119-0.002-0.175l3.322-8.798
		c0.028-0.074,0.091-0.129,0.167-0.149l2.18-0.556c0.642-0.165,1.114-0.695,1.2-1.352l0.735-5.583c0.1-0.761-0.354-1.492-1.08-1.739
		l-4.179-1.423c-0.061-0.021-0.111-0.066-0.139-0.124l-0.814-1.729c-0.143-0.302-0.372-0.549-0.66-0.712l-6.505-3.712
		c-0.445-0.25-0.987-0.279-1.459-0.069l-1.16,0.518c-0.09,0.043-0.198,0.021-0.269-0.048l-1.238-1.289l-0.716-2.81
		c-0.164-0.643-0.695-1.113-1.353-1.201l-1.242-0.164c-0.112-0.015-0.222-0.156-0.207-0.269l0.272-2.068
		c0.011-0.08,0.06-0.148,0.132-0.184l2.318-1.139c0.111-0.058,0.248-0.017,0.312,0.093l0.749,1.261
		c0.253,0.429,0.682,0.712,1.176,0.778l0.182,0.026c0.887,0.118,1.694-0.507,1.811-1.39l0.323-2.193l4.998-6.37
		c0.053-0.067,0.143-0.101,0.219-0.09l3.961,0.522c0.049,0.006,0.096,0.029,0.134,0.068l1.021,1.022
		c0.568,0.569,1.451,0.636,2.099,0.16l3.021-2.222c0.674-0.495,0.856-1.439,0.415-2.15l-1.442-2.328
		c-0.065-0.104-0.04-0.24,0.059-0.317l2.532-1.942c0.412-0.317,0.642-0.795,0.631-1.313c-0.011-0.519-0.262-0.989-0.687-1.287
		l-1.719-1.208c-0.579-0.406-1.348-0.393-1.91,0.041l-1.875,1.437c-0.104,0.082-0.256,0.061-0.337-0.044l-0.947-1.234
		c-0.263-0.341-0.642-0.561-1.069-0.617l-2.875-0.378c-0.875-0.119-1.694,0.506-1.811,1.389l-0.084,0.637
		c-0.011,0.086-0.063,0.135-0.092,0.158c-0.03,0.023-0.088,0.061-0.178,0.047l-2.41-0.316c-0.43-0.056-0.852,0.059-1.194,0.321
		l-4.291,3.291c-0.05,0.039-0.114,0.056-0.176,0.047l-6.915-0.911c-0.362,0.407-0.713,0.825-1.06,1.247l7.794,1.026
		c0.428,0.058,0.853-0.058,1.193-0.32l4.291-3.291c0.05-0.039,0.113-0.057,0.177-0.047l2.41,0.316
		c0.428,0.058,0.852-0.058,1.194-0.321c0.341-0.262,0.561-0.643,0.617-1.069l0.083-0.636c0.018-0.131,0.14-0.227,0.269-0.205
		l2.875,0.378c0.064,0.008,0.121,0.041,0.16,0.091l0.947,1.234c0.541,0.705,1.555,0.838,2.263,0.298l1.875-1.438
		c0.084-0.066,0.197-0.066,0.284-0.005l1.721,1.208c0.086,0.06,0.101,0.146,0.102,0.191c0.001,0.044-0.01,0.13-0.093,0.195
		l-2.532,1.942c-0.661,0.506-0.829,1.422-0.39,2.131l1.442,2.328c0.065,0.106,0.039,0.246-0.062,0.319l-3.021,2.222
		c-0.097,0.071-0.228,0.06-0.313-0.024l-1.02-1.021c-0.252-0.253-0.585-0.417-0.933-0.461l-3.957-0.522
		c-0.562-0.064-1.129,0.159-1.48,0.605l-4.999,6.372c-0.179,0.228-0.292,0.499-0.33,0.784l-0.273,2.077
		c-0.018,0.13-0.141,0.221-0.268,0.208l-0.181-0.025c-0.074-0.01-0.138-0.051-0.176-0.116l-0.75-1.262
		c-0.425-0.719-1.347-0.997-2.1-0.625l-2.318,1.141c-0.485,0.239-0.817,0.702-0.887,1.235l-0.272,2.069
		c-0.057,0.427,0.057,0.851,0.319,1.193c0.263,0.342,0.643,0.562,1.07,0.619l1.242,0.164c0.098,0.012,0.177,0.083,0.202,0.177
		l0.716,2.808c0.071,0.282,0.218,0.54,0.421,0.741l1.175,1.181c0.47,0.471,1.195,0.604,1.802,0.333l1.16-0.519
		c0.071-0.028,0.151-0.028,0.217,0.011l6.508,3.712c0.042,0.024,0.076,0.062,0.097,0.105l0.814,1.729
		c0.187,0.394,0.529,0.699,0.939,0.839l4.178,1.423c0.107,0.036,0.175,0.145,0.161,0.258l-0.735,5.582
		c-0.013,0.099-0.083,0.177-0.179,0.202l-2.18,0.555c-0.509,0.131-0.923,0.5-1.111,0.992l-3.323,8.801
		c-0.145,0.382-0.139,0.799,0.015,1.176l1.759,4.336c0.045,0.111-0.001,0.197-0.033,0.238c-0.032,0.041-0.101,0.118-0.222,0.091
		l-0.499-0.065c-0.065-0.009-0.125-0.045-0.164-0.099l-4.386-6.048c-0.028-0.039-0.044-0.087-0.044-0.137l-0.088-7.989
		c-0.007-0.575-0.323-1.108-0.824-1.389l-3.07-1.76l-2.852-4.674c-0.042-0.067-0.046-0.152-0.014-0.224l2.227-4.863
		c0.233-0.51,0.183-1.115-0.131-1.578l-2.775-4.093c-0.109-0.161-0.244-0.298-0.397-0.407l-1.833-1.313
		c-0.214-0.153-0.466-0.252-0.729-0.287l-2.237-0.293c-0.099-0.012-0.178-0.083-0.202-0.18l-1.904-7.573
		c-0.018-0.072-0.002-0.147,0.043-0.205l4.879-6.299c0.174-0.226,0.285-0.494,0.322-0.776l0.111-0.842
		c0.056-0.427-0.057-0.851-0.319-1.193c-0.262-0.342-0.642-0.561-1.069-0.618l-2.771-0.365c-0.33,0.413-0.65,0.833-0.963,1.26
		l3.555,0.468C24.042,29.971,24.135,30.09,24.117,30.222z"/>
	<path fill="#272525" d="M82.353,72.378c-0.044-0.18-0.044-0.37-0.002-0.55l0.346-1.434c0.167-0.699,0.03-1.441-0.377-2.035
		c-0.408-0.592-1.053-0.986-1.762-1.079l-0.163-0.022c-0.783-0.105-1.556,0.158-2.116,0.712l-5.673,5.599
		c-0.401,0.396-0.663,0.922-0.735,1.479l-0.416,3.16c-0.019,0.144-0.064,0.282-0.141,0.422c-0.463,0.844-0.413,1.863,0.132,2.659
		c0.48,0.701,1.261,1.106,2.094,1.106c0.113,0,0.226-0.007,0.341-0.021l1.422-0.189c0.455-0.062,0.886-0.244,1.248-0.529
		l5.482-4.357c0.775-0.616,1.124-1.635,0.889-2.596L82.353,72.378z M81.179,76.221l-5.482,4.356
		c-0.166,0.133-0.364,0.217-0.575,0.244l-1.424,0.188c-0.439,0.066-0.863-0.126-1.118-0.499c-0.255-0.37-0.276-0.827-0.054-1.234
		c0.151-0.277,0.249-0.576,0.291-0.889l0.416-3.161c0.033-0.256,0.154-0.498,0.338-0.68l5.674-5.601
		c0.22-0.219,0.514-0.337,0.818-0.337c0.051,0,0.102,0.003,0.152,0.01l0.161,0.022c0.333,0.043,0.62,0.22,0.811,0.497
		c0.19,0.275,0.252,0.608,0.173,0.935l-0.345,1.433c-0.094,0.394-0.093,0.809,0.003,1.199l0.568,2.322
		C81.695,75.469,81.534,75.938,81.179,76.221z"/>
	<path id="XMLID_140_" fill="#272525" d="M53.185,94.831c-1.817,0-3.646-0.119-5.478-0.359c-10.938-1.44-20.661-7.053-27.377-15.806
		c-6.715-8.752-9.622-19.597-8.181-30.535c2.972-22.58,23.759-38.523,46.341-35.56c22.58,2.975,38.53,23.763,35.557,46.342
		c-1.438,10.938-7.051,20.661-15.804,27.377C70.955,91.881,62.219,94.831,53.185,94.831z M53.072,13.59
		c-19.72,0-36.918,14.652-39.561,34.721c-1.392,10.575,1.417,21.058,7.909,29.518c6.493,8.462,15.892,13.889,26.467,15.279
		c10.571,1.395,21.056-1.415,29.519-7.908c8.461-6.492,13.888-15.892,15.28-26.466C95.561,36.906,80.14,16.809,58.31,13.935
		C56.551,13.703,54.801,13.59,53.072,13.59z"/>
	<g id="XMLID_4571_">
		<path id="XMLID_125_" fill="#FFFFFF" d="M74.28,103.513c-13.29,5.506-27.928,5.506-41.216,0c-2.146-0.888-3.165-3.347-2.275-5.492
			c0.889-2.144,3.347-3.164,5.492-2.274c11.215,4.645,23.567,4.645,34.782-0.001c11.216-4.645,19.95-13.379,24.595-24.595
			c9.59-23.151-1.443-49.786-24.595-59.377c-2.144-0.888-3.163-3.347-2.275-5.493c0.891-2.144,3.348-3.162,5.493-2.274
			c27.433,11.364,40.508,42.928,29.145,70.36C97.922,87.658,87.57,98.009,74.28,103.513z"/>
		<path id="XMLID_136_" fill="#272525" d="M53.671,108.329c-7.071,0-14.142-1.394-20.871-4.182
			c-1.208-0.499-2.147-1.439-2.647-2.646c-0.5-1.207-0.5-2.536,0-3.743c1.033-2.492,3.898-3.684,6.39-2.646
			c11.045,4.575,23.21,4.572,34.256-0.001c11.047-4.575,19.649-13.177,24.224-24.223C104.466,48.088,93.6,21.854,70.8,12.408
			c-1.206-0.499-2.146-1.439-2.646-2.647c-0.502-1.206-0.502-2.536,0-3.743c1.031-2.49,3.898-3.677,6.389-2.646
			c27.785,11.508,41.023,43.475,29.517,71.258c-5.574,13.459-16.057,23.94-29.517,29.517
			C67.813,106.936,60.743,108.329,53.671,108.329z M34.676,96.112c-1.38,0-2.692,0.818-3.253,2.171
			c-0.359,0.868-0.359,1.825,0,2.691c0.359,0.868,1.035,1.544,1.904,1.903c13.118,5.437,27.569,5.437,40.69,0l0,0
			c13.121-5.435,23.341-15.653,28.773-28.772c11.218-27.084-1.688-58.246-28.773-69.464c-1.788-0.739-3.852,0.111-4.594,1.902
			c-0.359,0.868-0.359,1.823,0,2.691c0.36,0.868,1.036,1.544,1.903,1.904c23.499,9.736,34.699,36.775,24.967,60.275
			C91.577,82.799,82.711,91.665,71.326,96.38c-11.384,4.717-23.923,4.716-35.308,0.001C35.579,96.198,35.125,96.112,34.676,96.112z"
			/>
	</g>
	<g id="XMLID_4573_">
		<path id="XMLID_133_" fill="#272525" d="M88.192,120H16.709v-1.83c0-2.526,2.055-4.581,4.581-4.581h62.322
			c2.524,0,4.58,2.055,4.58,4.581V120z M18.083,118.626h68.736v-0.456c0-1.769-1.438-3.208-3.206-3.208H21.29
			c-1.769,0-3.208,1.439-3.208,3.208V118.626z"/>
	</g>
	<g id="XMLID_4576_">
		<rect id="XMLID_132_" x="51.763" y="107.797" fill="#272525" width="1.374" height="6.479"/>
	</g>
</g>
<path fill="#CCE6F3" d="M92.854,57.147l-5.057-0.666c-0.104-0.014-0.188-0.094-0.204-0.199l-0.471-2.97
	c-0.111-0.7-0.68-1.254-1.383-1.348l-1.589-0.209c-0.686-0.09-1.357,0.27-1.662,0.895l-1.893,3.891
	c-0.063,0.129-0.178,0.134-0.236,0.134c-0.061-0.005-0.169-0.035-0.21-0.172l-1.542-5.292c-0.179-0.616-0.705-1.066-1.337-1.148
	l-1.034-0.137c-0.061-0.008-0.116-0.04-0.157-0.091l-3.425-4.465c-0.259-0.337-0.648-0.561-1.069-0.617l-2.311-0.305
	c-0.686-0.087-1.329,0.249-1.645,0.861c-0.316,0.615-0.216,1.338,0.255,1.842l5.222,5.579c0.065,0.069,0.067,0.149,0.064,0.189
	c-0.006,0.042-0.024,0.118-0.103,0.172l-1.979,1.374c-0.403,0.282-0.656,0.725-0.688,1.216c-0.034,0.491,0.154,0.964,0.516,1.297
	l2.584,2.378c0.058,0.052,0.086,0.13,0.075,0.207l-0.529,4.015c-0.016,0.132-0.134,0.223-0.268,0.207l-0.792-0.104
	c-0.887-0.114-1.693,0.507-1.811,1.39l-0.307,2.338c-0.019,0.129-0.146,0.221-0.271,0.205c-0.663-0.089-1.299,0.234-1.624,0.822
	l-3.108,5.637c-0.047,0.088-0.146,0.137-0.24,0.123l-2.634-0.348c-0.105-0.014-0.188-0.094-0.206-0.199l-0.872-5.365l0.663-5.029
	c0.014-0.104,0.017-0.205,0.011-0.312l-0.298-4.856c-0.046-0.77-0.635-1.402-1.399-1.502l-2.118-0.279
	c-0.248-0.028-0.501-0.007-0.738,0.075l-2.428,0.84c-0.1,0.032-0.215-0.001-0.275-0.09l-2.553-3.679l-1.019-8.896
	c-0.008-0.073,0.018-0.146,0.071-0.199l2.776-2.693c0.053-0.052,0.13-0.08,0.2-0.067l1.619,0.212
	c0.068,0.009,0.129,0.047,0.168,0.104l0.721,1.05c0.258,0.375,0.666,0.624,1.119,0.686l3.467,0.456
	c0.883,0.117,1.694-0.51,1.809-1.39l0.113-0.861c0.109-0.828-0.445-1.613-1.263-1.79l-2.856-0.644l-1.57-1.413
	c-0.515-0.464-1.267-0.547-1.872-0.208l-2.887,1.623c-0.101,0.059-0.188,0.025-0.231,0.003c-0.043-0.024-0.118-0.082-0.125-0.197
	l-0.185-3.071c-0.003-0.06,0.016-0.119,0.056-0.167l4.858-5.845c0.053-0.064,0.136-0.094,0.216-0.084l4.724,0.621
	c0.379,0.042,0.766-0.038,1.082-0.243l3.896-2.504c0.048-0.032,0.107-0.043,0.162-0.037l18.768,2.471
	C90.971,37.905,93.757,47.308,92.854,57.147z"/>
<path fill="#CCE6F3" d="M46.932,29.452l1.442,2.328c0.065,0.106,0.039,0.246-0.062,0.319l-3.021,2.222
	c-0.097,0.071-0.228,0.06-0.313-0.024l-1.02-1.021c-0.252-0.253-0.585-0.417-0.933-0.461l-3.957-0.522
	c-0.562-0.064-1.129,0.159-1.48,0.605l-4.999,6.372c-0.179,0.228-0.292,0.499-0.33,0.784l-0.273,2.077
	c-0.018,0.13-0.141,0.221-0.268,0.208l-0.181-0.025c-0.074-0.01-0.138-0.051-0.176-0.116l-0.75-1.262
	c-0.425-0.719-1.347-0.997-2.1-0.625l-2.318,1.141c-0.485,0.239-0.817,0.702-0.887,1.235l-0.272,2.069
	c-0.057,0.427,0.057,0.851,0.319,1.193c0.263,0.342,0.643,0.562,1.07,0.619l1.242,0.164c0.098,0.012,0.177,0.083,0.202,0.177
	l0.716,2.808c0.071,0.282,0.218,0.54,0.421,0.741l1.175,1.181c0.47,0.471,1.195,0.604,1.802,0.333l1.16-0.519
	c0.071-0.028,0.151-0.028,0.217,0.011l6.508,3.712c0.042,0.024,0.076,0.062,0.097,0.105l0.814,1.729
	c0.187,0.394,0.529,0.699,0.939,0.839l4.178,1.423c0.107,0.036,0.175,0.145,0.161,0.258l-0.735,5.582
	c-0.013,0.099-0.083,0.177-0.179,0.202l-2.18,0.555c-0.509,0.131-0.923,0.5-1.111,0.992l-3.323,8.801
	c-0.145,0.382-0.139,0.799,0.015,1.176l1.759,4.336c0.045,0.111-0.001,0.197-0.033,0.238c-0.032,0.041-0.101,0.118-0.222,0.091
	l-0.499-0.065c-0.065-0.009-0.125-0.045-0.164-0.099l-4.386-6.048c-0.028-0.039-0.044-0.087-0.044-0.137l-0.088-7.989
	c-0.007-0.575-0.323-1.108-0.824-1.389l-3.07-1.76l-2.852-4.674c-0.042-0.067-0.046-0.152-0.014-0.224l2.227-4.863
	c0.233-0.51,0.183-1.115-0.131-1.578l-2.775-4.093c-0.109-0.161-0.244-0.298-0.397-0.407l-1.833-1.313
	c-0.214-0.153-0.466-0.252-0.729-0.287l-2.237-0.293c-0.099-0.012-0.178-0.083-0.202-0.18l-1.904-7.573
	c-0.018-0.072-0.002-0.147,0.043-0.205l4.879-6.299c0.174-0.226,0.285-0.494,0.322-0.776l0.111-0.842
	c0.056-0.427-0.057-0.851-0.319-1.193c-0.262-0.342-0.642-0.561-1.069-0.618l-1.955-0.258c0.125-0.152,0.254-0.3,0.381-0.451
	l6.97,0.918c0.428,0.058,0.853-0.058,1.193-0.32l4.291-3.291c0.05-0.039,0.113-0.057,0.177-0.047l2.41,0.316
	c0.428,0.058,0.852-0.058,1.194-0.321c0.341-0.262,0.561-0.643,0.617-1.069l0.083-0.636c0.018-0.131,0.14-0.227,0.269-0.205
	l2.875,0.378c0.064,0.008,0.121,0.041,0.16,0.091l0.947,1.234c0.541,0.705,1.555,0.838,2.263,0.298l1.875-1.438
	c0.084-0.066,0.197-0.066,0.284-0.005l1.721,1.208c0.086,0.06,0.101,0.146,0.102,0.191c0.001,0.044-0.01,0.13-0.093,0.195
	l-2.532,1.942C46.661,27.827,46.493,28.744,46.932,29.452z"/>
<path fill="#CCE6F3" d="M81.179,76.221l-5.482,4.356c-0.166,0.133-0.364,0.217-0.575,0.244l-1.424,0.188
	c-0.439,0.066-0.863-0.126-1.118-0.499c-0.255-0.37-0.276-0.827-0.054-1.234c0.151-0.277,0.249-0.576,0.291-0.889l0.416-3.161
	c0.033-0.256,0.154-0.498,0.338-0.68l5.674-5.601c0.22-0.219,0.514-0.337,0.818-0.337c0.051,0,0.102,0.003,0.152,0.01l0.161,0.022
	c0.333,0.043,0.62,0.22,0.811,0.497c0.19,0.275,0.252,0.608,0.173,0.935l-0.345,1.433c-0.094,0.394-0.093,0.809,0.003,1.199
	l0.568,2.322C81.695,75.469,81.534,75.938,81.179,76.221z"/>
</svg>
