<?xml version="1.0" encoding="utf-8"?>
<!-- Generator: Adobe Illustrator 16.0.0, SVG Export Plug-In . SVG Version: 6.00 Build 0)  -->
<!DOCTYPE svg PUBLIC "-//W3C//DTD SVG 1.1//EN" "http://www.w3.org/Graphics/SVG/1.1/DTD/svg11.dtd">
<svg version="1.1" id="Layer_1" xmlns="http://www.w3.org/2000/svg" xmlns:xlink="http://www.w3.org/1999/xlink" x="0px" y="0px"
	 width="120px" height="120px" viewBox="0 0 120 120" enable-background="new 0 0 120 120" xml:space="preserve">
<g id="XMLID_232_">
	<path id="XMLID_266_" fill="#272525" d="M107.759,24.922H48.374c-6.751,0-12.243,5.492-12.243,12.244v55.926h-6.193l-1.484-3.584
		c0-0.002-0.003-0.004-0.004-0.005c-0.001-0.003,0-0.005-0.001-0.007c-1.571-3.6-1.269-10.657-0.919-18.828
		c0.829-19.342,1.963-45.833-20.242-54.199c-0.362-0.133-0.765,0.038-0.915,0.394C6.312,17.01,0.631,30.919,5.506,49.36
		c-1.865-1.871-3.109-2.685-4.582-3.127c-0.261-0.082-0.545-0.001-0.732,0.198c-0.187,0.201-0.242,0.489-0.145,0.745
		c1.125,2.949,2.168,6.052,3.177,9.052c4.635,13.784,9.438,28.026,24.01,34.091l1.149,2.774h-0.328
		c-0.396,0-0.718,0.321-0.718,0.719v4.421h-3.474c-0.302,0-0.571,0.189-0.674,0.473l-2.982,8.203
		c-0.617,1.695-0.173,3.598,1.13,4.846l3.182,3.047c0.133,0.128,0.312,0.199,0.497,0.199h16.707h0.495H84.71
		c6.75,0,12.241-5.492,12.241-12.243V37.884h22.331c0.398,0,0.718-0.321,0.718-0.718C120,30.415,114.51,24.922,107.759,24.922z
		 M4.585,55.771c-0.833-2.478-1.689-5.022-2.597-7.503C3.041,48.917,4.329,50.1,6.5,52.521c0.226,0.251,0.598,0.313,0.89,0.144
		c0.294-0.167,0.431-0.518,0.328-0.84c-5.427-17.05-1.35-30.665-0.266-33.75c20.535,8.29,19.443,33.831,18.642,52.533
		c-0.224,5.227-0.419,9.987-0.124,13.79c-1.491-4.4-3.736-12.425-4.799-23.336c-1.864-19.144-8.023-31.272-8.085-31.393
		c-0.183-0.353-0.617-0.494-0.967-0.308c-0.352,0.181-0.491,0.614-0.31,0.966c0.061,0.119,6.096,12.022,7.933,30.875
		c1.426,14.638,4.965,24.199,6.05,26.859C13.363,81.79,8.894,68.583,4.585,55.771z M28.774,94.529h9.685v3.703h-9.685V94.529z
		 M41.722,113.564H25.303l-2.973-2.849c-0.892-0.854-1.196-2.156-0.774-3.317l2.811-7.73h3.689h11.121h3.689l2.811,7.73
		c0.423,1.161,0.118,2.464-0.773,3.317l-2.974,2.849H41.722z M44.005,113.564l1.89-1.811c1.304-1.248,1.747-3.15,1.131-4.846
		l-1.248-3.433h26.708c0.254,4.37,2.812,8.133,6.473,10.089H44.005z M95.515,102.757c0,5.96-4.847,10.808-10.805,10.808
		c-5.96,0-10.809-4.848-10.809-10.808c0-0.396-0.321-0.718-0.718-0.718H45.255l-1.212-3.334c-0.104-0.283-0.373-0.473-0.675-0.473
		h-3.474v-4.421c0-0.397-0.321-0.719-0.718-0.719h-1.61V37.167c0-5.959,4.848-10.809,10.807-10.809h53.636
		c-3.861,2.063-6.495,6.133-6.495,10.809V102.757z M96.987,36.448c0.373-5.624,5.055-10.09,10.771-10.09s10.413,4.465,10.783,10.09
		H96.987z"/>
	<path id="XMLID_298_" fill="#272525" d="M87.184,43.564H45.898c-0.396,0-0.718,0.321-0.718,0.718c0,0.397,0.321,0.718,0.718,0.718
		h41.286c0.396,0,0.718-0.321,0.718-0.718C87.901,43.886,87.58,43.564,87.184,43.564z"/>
	<path id="XMLID_299_" fill="#272525" d="M45.898,52.479h20.643c0.397,0,0.718-0.321,0.718-0.718c0-0.397-0.32-0.718-0.718-0.718
		H45.898c-0.396,0-0.718,0.32-0.718,0.718C45.18,52.157,45.501,52.479,45.898,52.479z"/>
	<path id="XMLID_300_" fill="#272525" d="M87.184,58.521H45.898c-0.396,0-0.718,0.321-0.718,0.719c0,0.396,0.321,0.718,0.718,0.718
		h41.286c0.396,0,0.718-0.321,0.718-0.718C87.901,58.843,87.58,58.521,87.184,58.521z"/>
	<path id="XMLID_301_" fill="#272525" d="M79.438,66h-33.54c-0.396,0-0.718,0.321-0.718,0.718s0.321,0.718,0.718,0.718h33.54
		c0.398,0,0.718-0.321,0.718-0.718S79.836,66,79.438,66z"/>
	<path id="XMLID_302_" fill="#272525" d="M60,73.478H45.898c-0.396,0-0.718,0.321-0.718,0.718c0,0.397,0.321,0.719,0.718,0.719H60
		c0.396,0,0.718-0.321,0.718-0.719C60.718,73.799,60.397,73.478,60,73.478z"/>
</g>
<path id="XMLID_1_" fill="#CCE6F3" d="M4.585,55.771c-0.833-2.478-1.689-5.022-2.597-7.503C3.041,48.917,4.329,50.1,6.5,52.521
	c0.226,0.251,0.598,0.313,0.89,0.144c0.294-0.167,0.431-0.518,0.328-0.84c-5.427-17.05-1.35-30.665-0.266-33.75
	c20.535,8.29,19.443,33.831,18.642,52.533c-0.224,5.227-0.419,9.987-0.124,13.79c-1.491-4.4-3.736-12.425-4.799-23.336
	c-1.864-19.144-8.023-31.272-8.085-31.393c-0.183-0.353-0.617-0.494-0.967-0.308c-0.352,0.181-0.491,0.614-0.31,0.966
	c0.061,0.119,6.096,12.022,7.933,30.875c1.426,14.638,4.965,24.199,6.05,26.859C13.363,81.79,8.894,68.583,4.585,55.771z"/>
</svg>
