<?xml version="1.0" encoding="utf-8"?>
<!-- Generator: Adobe Illustrator 16.0.0, SVG Export Plug-In . SVG Version: 6.00 Build 0)  -->
<!DOCTYPE svg PUBLIC "-//W3C//DTD SVG 1.1//EN" "http://www.w3.org/Graphics/SVG/1.1/DTD/svg11.dtd">
<svg version="1.1" id="Layer_4" xmlns="http://www.w3.org/2000/svg" xmlns:xlink="http://www.w3.org/1999/xlink" x="0px" y="0px"
	 width="120px" height="120px" viewBox="0 0 120 120" enable-background="new 0 0 120 120" xml:space="preserve">
<g id="XMLID_4339_">
	<path id="XMLID_460_" fill="#272525" d="M27.581,120H9.694c-0.386,0-0.697-0.312-0.697-0.696V44.84
		c0-0.163,0.058-0.321,0.162-0.446c0.136-0.164,3.397-3.995,9.479-3.995s9.343,3.832,9.479,3.995
		c0.104,0.125,0.161,0.283,0.161,0.446v74.464C28.278,119.688,27.967,120,27.581,120z M10.391,118.607h16.494V45.112
		c-0.689-0.708-3.551-3.32-8.247-3.32s-7.558,2.611-8.247,3.32V118.607z"/>
</g>
<g id="XMLID_4341_">
	<path id="XMLID_457_" fill="#272525" d="M27.581,112.721H9.694c-0.386,0-0.697-0.312-0.697-0.696V106.2
		c0-0.386,0.312-0.697,0.697-0.697h17.887c0.386,0,0.697,0.312,0.697,0.697v5.824C28.278,112.409,27.967,112.721,27.581,112.721z
		 M10.391,111.327h16.494v-4.431H10.391V111.327z"/>
</g>
<g id="XMLID_4342_">
	<path id="XMLID_454_" fill="#272525" d="M23.422,95.418h-9.567c-0.386,0-0.697-0.312-0.697-0.696V52.201
		c0-0.385,0.312-0.696,0.697-0.696h9.567c0.385,0,0.696,0.312,0.696,0.696v42.521C24.118,95.106,23.807,95.418,23.422,95.418z
		 M14.551,94.025h8.174V52.897h-8.174V94.025z"/>
</g>
<g id="XMLID_4345_">
	<g id="XMLID_4348_">
		<path id="XMLID_451_" fill="#272525" d="M45.47,120H27.581c-0.385,0-0.696-0.312-0.696-0.696V30.487
			c0-0.163,0.058-0.321,0.161-0.446c0.137-0.164,3.399-3.995,9.48-3.995c6.079,0,9.343,3.832,9.479,3.995
			c0.104,0.125,0.161,0.283,0.161,0.446v88.816C46.166,119.688,45.854,120,45.47,120z M28.278,118.607h16.495V30.76
			c-0.689-0.709-3.552-3.32-8.247-3.32c-4.696,0-7.559,2.611-8.248,3.32V118.607z"/>
	</g>
	<g id="XMLID_4349_">
		<path id="XMLID_448_" fill="#272525" d="M36.526,89.979c-3.769,0-5.306-2.316-5.37-2.415c-0.071-0.112-0.11-0.244-0.11-0.377
			V37.679c0-0.133,0.039-0.265,0.111-0.378c0.063-0.098,1.601-2.413,5.369-2.413c3.768,0,5.305,2.315,5.368,2.413
			c0.072,0.113,0.111,0.243,0.111,0.378v49.509c0,0.133-0.039,0.265-0.11,0.378C41.831,87.663,40.294,89.979,36.526,89.979z
			 M32.438,86.954c0.356,0.427,1.587,1.633,4.088,1.633c2.5,0,3.731-1.208,4.087-1.633V37.911c-0.356-0.426-1.587-1.631-4.087-1.631
			c-2.502,0-3.732,1.208-4.088,1.631V86.954z"/>
	</g>
</g>
<g id="XMLID_4344_">
	<path id="XMLID_445_" fill="#272525" d="M40.478,115.321h-7.903c-0.385,0-0.696-0.312-0.696-0.696v-6.032
		c0-0.386,0.312-0.697,0.696-0.697h7.903c0.386,0,0.696,0.312,0.696,0.697v6.032C41.174,115.01,40.863,115.321,40.478,115.321z
		 M33.271,113.929h6.511v-4.64h-6.511V113.929z"/>
</g>
<g id="XMLID_4352_">
	<g id="XMLID_4354_">
		<path id="XMLID_442_" fill="#272525" d="M63.358,120H45.47c-0.385,0-0.696-0.312-0.696-0.696v-83.72
			c0-0.163,0.057-0.321,0.161-0.446c0.136-0.163,3.399-3.995,9.479-3.995c6.081,0,9.343,3.832,9.479,3.995
			c0.104,0.125,0.162,0.283,0.162,0.446v83.72C64.055,119.688,63.743,120,63.358,120z M46.166,118.607h16.496V35.856
			c-0.69-0.708-3.553-3.32-8.248-3.32c-4.696,0-7.559,2.611-8.248,3.32V118.607z"/>
	</g>
</g>
<g id="XMLID_4351_">
	<path id="XMLID_441_" fill="#272525" d="M63.358,45.745H45.886c-0.385,0-0.696-0.312-0.696-0.697c0-0.385,0.312-0.696,0.696-0.696
		h17.473c0.385,0,0.696,0.312,0.696,0.696C64.055,45.433,63.743,45.745,63.358,45.745z"/>
</g>
<g id="XMLID_4347_">
	<path id="XMLID_438_" fill="#272525" d="M58.057,96.194h-7.286c-0.385,0-0.696-0.312-0.696-0.696V49.624
		c0-0.385,0.312-0.696,0.696-0.696h7.286c0.385,0,0.696,0.312,0.696,0.696v45.875C58.753,95.883,58.441,96.194,58.057,96.194z
		 M51.468,94.802h5.893V50.32h-5.893V94.802z"/>
</g>
<g id="XMLID_4355_">
	<path id="XMLID_437_" fill="#272525" d="M63.358,104.608H45.47c-0.385,0-0.696-0.312-0.696-0.696s0.312-0.696,0.696-0.696h17.889
		c0.385,0,0.696,0.312,0.696,0.696S63.743,104.608,63.358,104.608z"/>
</g>
<g id="XMLID_4360_">
	<g id="XMLID_4361_">
		<path id="XMLID_434_" fill="#272525" d="M93.781,119.966c-0.273,0-0.533-0.162-0.645-0.43L62.452,45.458
			c-0.063-0.151-0.069-0.318-0.021-0.473c0.063-0.203,1.611-4.992,7.229-7.319s10.098-0.037,10.285,0.064
			c0.145,0.075,0.259,0.199,0.321,0.35l30.684,74.08c0.071,0.172,0.071,0.362,0,0.533c-0.07,0.171-0.205,0.307-0.377,0.377
			l-16.525,6.845C93.961,119.949,93.869,119.966,93.781,119.966z M63.843,45.175l30.313,73.185l15.241-6.311L79.083,38.863
			c-0.908-0.392-4.551-1.709-8.89,0.088C65.831,40.759,64.203,44.258,63.843,45.175z"/>
	</g>
</g>
<g id="XMLID_4353_">
	<path id="XMLID_431_" fill="#272525" d="M72.013,54.912c-0.091,0-0.182-0.018-0.267-0.053c-0.171-0.071-0.308-0.207-0.378-0.376
		l-2.546-6.149c-0.063-0.15-0.071-0.317-0.022-0.472c0.031-0.102,0.803-2.518,3.565-3.663c2.763-1.146,5.018,0.021,5.113,0.068
		c0.143,0.076,0.255,0.2,0.316,0.35l2.548,6.149c0.07,0.17,0.07,0.362,0,0.533c-0.071,0.17-0.207,0.306-0.377,0.377l-7.687,3.184
		C72.192,54.895,72.103,54.912,72.013,54.912z M70.215,48.057l2.174,5.249l6.4-2.651l-2.175-5.25
		c-0.53-0.208-1.987-0.634-3.716,0.081C71.172,46.2,70.443,47.536,70.215,48.057z"/>
</g>
<g id="XMLID_4356_">
	<path id="XMLID_428_" fill="#272525" d="M96.409,113.812c-0.272,0-0.532-0.162-0.643-0.43L73.463,59.539
		c-0.146-0.355,0.021-0.763,0.378-0.91l7.686-3.184c0.171-0.071,0.361-0.071,0.532,0c0.172,0.071,0.308,0.207,0.379,0.376
		l22.301,53.843c0.071,0.172,0.071,0.362,0,0.533c-0.07,0.171-0.205,0.307-0.375,0.377l-7.688,3.183
		C96.588,113.795,96.499,113.812,96.409,113.812z M75.017,59.649l21.771,52.556l6.398-2.649L81.417,56.999L75.017,59.649z"/>
</g>
<g id="XMLID_4358_">
	<path id="XMLID_427_" fill="#272525" d="M91.195,101.225c-0.273,0-0.532-0.162-0.644-0.43c-0.146-0.355,0.021-0.764,0.377-0.91
		l7.687-3.183c0.356-0.147,0.765,0.021,0.911,0.376c0.146,0.355-0.021,0.764-0.378,0.91l-7.687,3.183
		C91.375,101.208,91.284,101.225,91.195,101.225z"/>
</g>
<g id="XMLID_4363_">
	<path id="XMLID_426_" fill="#272525" d="M114.303,120H5.696C5.312,120,5,119.688,5,119.304s0.312-0.696,0.696-0.696h108.606
		c0.387,0,0.697,0.312,0.697,0.696S114.689,120,114.303,120z"/>
</g>
<rect id="XMLID_3_" x="51.468" y="50.32" fill="#CCE6F3" width="5.893" height="44.481"/>
<rect id="XMLID_1_" x="14.551" y="52.897" fill="#CCE6F3" width="8.174" height="41.128"/>
<path id="XMLID_2_" fill="#CCE6F3" d="M32.438,86.954c0.356,0.427,1.587,1.633,4.088,1.633c2.5,0,3.731-1.208,4.087-1.633V37.911
	c-0.356-0.426-1.587-1.631-4.087-1.631c-2.502,0-3.732,1.208-4.088,1.631V86.954z"/>
<rect id="XMLID_4_" x="60.658" y="81.14" transform="matrix(-0.3827 -0.9239 0.9239 -0.3827 45.0383 199.2981)" fill="#CCE6F3" width="56.886" height="6.925"/>
</svg>
