<?xml version="1.0" encoding="utf-8"?>
<!-- Generator: Adobe Illustrator 16.0.0, SVG Export Plug-In . SVG Version: 6.00 Build 0)  -->
<!DOCTYPE svg PUBLIC "-//W3C//DTD SVG 1.1//EN" "http://www.w3.org/Graphics/SVG/1.1/DTD/svg11.dtd">
<svg version="1.1" id="Layer_3" xmlns="http://www.w3.org/2000/svg" xmlns:xlink="http://www.w3.org/1999/xlink" x="0px" y="0px"
	 width="120px" height="120px" viewBox="0 0 120 120" enable-background="new 0 0 120 120" xml:space="preserve">
<path id="XMLID_757_" fill="#272525" d="M108.286,46.994c-2.577,0-4.676,2.098-4.676,4.676v1.246
	c-0.75-0.666-1.732-1.082-2.824-1.082c-2.33,0-4.226,1.896-4.226,4.226v2.876c-0.586-0.438-1.31-0.708-2.104-0.708
	c-1.92,0-3.483,1.563-3.483,3.484v10.789c-0.071,0.062-0.151,0.109-0.22,0.177L87.332,76.1v-6.816c0-7.853-6.388-14.24-14.238-14.24
	h-4.687v-3.742c7.148-2.568,12.097-10.196,12.097-18.75c0-11.307-9.198-20.505-20.504-20.505c-11.306,0-20.505,9.198-20.505,20.505
	c0,8.104,4.733,15.395,12.097,18.707v3.785h-4.685c-7.852,0-14.24,6.388-14.24,14.24V76.1l-3.42-3.421
	c-0.068-0.067-0.148-0.115-0.221-0.179V61.713c0-1.921-1.563-3.484-3.511-3.484c-0.781,0-1.495,0.268-2.076,0.703V56.06
	c0-2.33-1.896-4.226-4.259-4.226c-1.074,0-2.044,0.415-2.791,1.077V51.67c0-2.579-2.098-4.676-4.714-4.676
	C9.097,46.994,7,49.091,7,51.67v23.742c0,0.115,0.029,0.229,0.083,0.332l15.055,28.117h-0.8c-0.389,0-0.704,0.316-0.704,0.704v4.763
	h-1.357c-0.389,0-0.704,0.316-0.704,0.704v9.264c0,0.388,0.315,0.704,0.704,0.704h24.681c0.389,0,0.704-0.316,0.704-0.704v-9.264
	c0-0.388-0.315-0.704-0.704-0.704h-1.357v-4.763c0-0.388-0.315-0.704-0.704-0.704h-0.677V84.945c0-0.187-0.074-0.365-0.207-0.497
	l-6.939-6.94v-8.225c0-7.076,5.756-12.832,12.832-12.832h5.389h15.408h5.39c7.075,0,12.83,5.756,12.83,12.832v8.225l-6.939,6.94
	c-0.132,0.132-0.206,0.311-0.206,0.497v18.916h-0.678c-0.388,0-0.704,0.316-0.704,0.704v4.763h-1.355
	c-0.391,0-0.704,0.316-0.704,0.704v9.264c0,0.388,0.313,0.704,0.704,0.704h24.681c0.39,0,0.704-0.316,0.704-0.704v-9.264
	c0-0.388-0.314-0.704-0.704-0.704h-1.356v-4.763c0-0.388-0.315-0.704-0.704-0.704H97.86l15.056-28.117
	c0.055-0.103,0.084-0.217,0.084-0.332V51.67C113,49.091,110.903,46.994,108.286,46.994z M25.542,59.637
	c1.145,0,2.076,0.931,2.076,2.076v10.021c-1.364-0.408-2.935-0.109-4.023,0.98c-0.06,0.058-0.102,0.127-0.156,0.189v-6.263v-4.929
	C23.439,60.568,24.371,59.637,25.542,59.637z M19.213,53.241c1.554,0,2.819,1.264,2.819,2.818v5.653v4.929v8.88
	c0,0.083,0.021,0.162,0.047,0.236l-5.69-5.201V55.788C16.528,54.362,17.721,53.241,19.213,53.241z M43.255,118.593H19.981v-7.856
	h1.357h20.56h1.357V118.593z M22.042,109.328v-4.059h19.152v4.059H22.042z M39.813,103.861H23.735L8.408,75.234V51.67
	c0-1.802,1.466-3.269,3.305-3.269c1.802,0,3.268,1.466,3.268,3.269v4.118c-0.006,0.092-0.027,0.179-0.027,0.272v6.242
	c0,0.048,0.018,0.091,0.027,0.137v8.429c0,0.197,0.083,0.385,0.229,0.52l16.795,15.352c0.032,0.03,0.072,0.043,0.107,0.065
	c0.04,0.025,0.077,0.056,0.12,0.072c0.041,0.014,0.083,0.017,0.125,0.023c0.047,0.009,0.092,0.022,0.139,0.021
	c0.044,0,0.086-0.017,0.13-0.024c0.045-0.01,0.089-0.014,0.131-0.032c0.044-0.018,0.08-0.052,0.12-0.079
	c0.033-0.023,0.071-0.037,0.101-0.067c0.004-0.003,0.004-0.009,0.008-0.013c0.004-0.004,0.01-0.005,0.014-0.01
	c0.03-0.033,0.043-0.072,0.066-0.109c0.024-0.039,0.054-0.074,0.07-0.116s0.018-0.088,0.025-0.132
	c0.008-0.044,0.021-0.088,0.02-0.133c-0.001-0.044-0.016-0.086-0.025-0.128c-0.01-0.046-0.014-0.091-0.032-0.135
	c-0.019-0.043-0.051-0.077-0.078-0.117c-0.023-0.034-0.038-0.073-0.068-0.104l-8.387-8.385c-0.484-0.486-0.751-1.129-0.751-1.814
	c0-0.684,0.267-1.328,0.786-1.848c0.968-0.967,2.657-0.967,3.626,0l11.562,11.563V103.861z M79.061,31.847H65.09
	c-5.635,0-10.219-4.584-10.219-10.219v-3.045v-4.408c1.635-0.458,3.35-0.72,5.129-0.72C70.291,13.455,78.687,21.645,79.061,31.847z
	 M53.463,14.631v3.951v3.045c0,5.635-4.584,10.219-10.219,10.219h-2.306C41.229,23.923,46.359,17.232,53.463,14.631z M53,55.043
	v-4.246c0-0.283-0.169-0.538-0.43-0.648c-6.87-2.904-11.371-9.487-11.642-16.894h2.315c5.024,0,9.302-3.209,10.923-7.682
	c1.621,4.472,5.898,7.682,10.923,7.682h13.981c-0.267,7.852-4.947,14.731-11.583,16.872C67.197,50.221,67,50.492,67,50.797v4.246H53
	z M97.968,56.06c0-1.554,1.265-2.818,2.852-2.818c1.462,0,2.652,1.121,2.791,2.546v14.769l-5.689,5.201
	c0.026-0.074,0.047-0.153,0.047-0.236v-8.88v-4.929V56.06z M92.381,61.713c0-1.145,0.932-2.076,2.104-2.076
	c1.144,0,2.076,0.931,2.076,2.076v4.929v6.269c-0.066-0.076-0.119-0.158-0.19-0.231c-1.042-1.042-2.617-1.343-3.989-0.938V61.713z
	 M100.018,118.593H76.745v-7.856h1.355h20.561h1.356V118.593z M97.957,109.328H78.805v-4.059h19.152V109.328z M111.592,75.234
	l-15.329,28.627H80.187V85.237l11.562-11.563c0.969-0.967,2.623-1.004,3.66,0.036c0.485,0.483,0.752,1.128,0.752,1.812
	c0,0.686-0.267,1.328-0.752,1.814l-8.387,8.385c-0.03,0.03-0.045,0.069-0.067,0.104c-0.026,0.04-0.06,0.074-0.079,0.117
	c-0.018,0.044-0.021,0.089-0.031,0.135c-0.01,0.042-0.023,0.084-0.024,0.128c-0.002,0.045,0.012,0.089,0.019,0.133
	s0.01,0.09,0.026,0.132s0.045,0.077,0.068,0.116c0.023,0.037,0.037,0.076,0.066,0.109c0.006,0.005,0.011,0.006,0.014,0.01
	c0.004,0.004,0.006,0.01,0.009,0.013c0.028,0.028,0.064,0.041,0.096,0.064c0.041,0.029,0.08,0.063,0.125,0.082
	c0.04,0.019,0.084,0.021,0.125,0.03c0.047,0.01,0.09,0.026,0.135,0.026c0.05,0.002,0.097-0.012,0.144-0.021
	c0.041-0.007,0.082-0.009,0.121-0.022c0.045-0.017,0.082-0.05,0.123-0.074c0.036-0.021,0.074-0.034,0.104-0.063l16.796-15.352
	c0.146-0.135,0.229-0.322,0.229-0.52v-8.429c0.01-0.046,0.027-0.089,0.027-0.137V56.06c0-0.093-0.021-0.18-0.027-0.271V51.67
	c0-1.802,1.466-3.269,3.305-3.269c1.802,0,3.269,1.466,3.269,3.269V75.234z"/>
<polygon id="XMLID_6_" fill="#CCE6F3" points="43.255,118.593 19.981,118.593 19.981,110.736 21.338,110.736 41.898,110.736 
	43.255,110.736 "/>
<rect id="XMLID_5_" x="22.042" y="105.27" fill="#CCE6F3" width="19.152" height="4.059"/>
<polygon id="XMLID_4_" fill="#CCE6F3" points="100.018,118.593 76.745,118.593 76.745,110.736 78.101,110.736 98.661,110.736 
	100.018,110.736 "/>
<rect id="XMLID_3_" x="78.805" y="105.27" fill="#CCE6F3" width="19.152" height="4.059"/>
</svg>
