<?xml version="1.0" encoding="utf-8"?>
<!-- Generator: Adobe Illustrator 16.0.0, SVG Export Plug-In . SVG Version: 6.00 Build 0)  -->
<!DOCTYPE svg PUBLIC "-//W3C//DTD SVG 1.1//EN" "http://www.w3.org/Graphics/SVG/1.1/DTD/svg11.dtd">
<svg version="1.1" xmlns="http://www.w3.org/2000/svg" xmlns:xlink="http://www.w3.org/1999/xlink" x="0px" y="0px" width="30px"
	 height="30px" viewBox="0 0 30 30" enable-background="new 0 0 30 30" xml:space="preserve">
<g id="Layer_1">
	<g>
		<path fill="none" d="M26.148,22.182c0-0.99-0.806-1.796-1.795-1.796c-0.99,0-1.796,0.806-1.796,1.796v0.598h3.591V22.182z"/>
		<polygon fill="none" points="26.055,8.417 14.777,2.51 3.5,8.417 14.777,14.324 		"/>
		<rect x="20.762" y="23.977" fill="none" width="7.182" height="3.59"/>
		<path fill="#343434" d="M28.635,8.417L14.777,1.158L0.921,8.417l13.856,7.259L28.635,8.417z M14.777,2.51l11.277,5.907
			l-11.277,5.907L3.5,8.417L14.777,2.51z"/>
		<polygon fill="#343434" points="28.695,14.967 23.734,12.661 23.229,13.747 25.994,15.031 14.777,20.907 3.562,15.031 
			6.326,13.747 5.821,12.661 0.859,14.967 14.777,22.258 		"/>
		<polygon fill="#343434" points="14.777,27.49 3.562,21.614 6.325,20.33 5.82,19.244 0.86,21.55 14.777,28.842 17.945,27.182 
			17.391,26.121 		"/>
		<path fill="#343434" d="M27.346,22.779v-0.598c0-1.65-1.344-2.992-2.992-2.992c-1.65,0-2.992,1.342-2.992,2.992v0.598h-1.796
			v5.984h9.575v-5.984H27.346z M22.558,22.182c0-0.99,0.806-1.796,1.796-1.796c0.989,0,1.795,0.806,1.795,1.796v0.598h-3.591V22.182
			z M27.943,27.566h-7.182v-3.59h7.182V27.566z"/>
	</g>
</g>
<g id="Layer_2" display="none">
	<g display="inline">
		<circle fill="none" cx="15" cy="25.771" r="2.394"/>
		<circle fill="none" cx="4.228" cy="25.771" r="2.394"/>
		<path fill="none" d="M23.379,4.229c0-1.32-1.074-2.395-2.395-2.395H9.016c-1.32,0-2.394,1.074-2.394,2.395
			c0,1.319,1.074,2.394,2.394,2.394h11.969C22.305,6.622,23.379,5.548,23.379,4.229z"/>
		<circle fill="none" cx="25.771" cy="25.771" r="2.394"/>
		<path fill="#343434" d="M26.37,22.235v-7.834H15.599V7.818h5.386c1.98,0,3.591-1.61,3.591-3.59c0-1.98-1.61-3.591-3.591-3.591
			H9.016c-1.98,0-3.59,1.61-3.59,3.591c0,1.979,1.61,3.59,3.59,3.59h5.386v6.583H3.63v7.834c-1.695,0.286-2.992,1.761-2.992,3.536
			c0,1.98,1.611,3.591,3.591,3.591s3.59-1.61,3.59-3.591c0-1.775-1.297-3.25-2.992-3.536v-6.637h9.575v6.637
			c-1.695,0.286-2.992,1.761-2.992,3.536c0,1.98,1.61,3.591,3.59,3.591c1.98,0,3.591-1.61,3.591-3.591
			c0-1.775-1.297-3.25-2.992-3.536v-6.637h9.575v6.637c-1.695,0.286-2.992,1.761-2.992,3.536c0,1.98,1.61,3.591,3.59,3.591
			c1.98,0,3.591-1.61,3.591-3.591C29.362,23.996,28.065,22.521,26.37,22.235z M6.622,4.229c0-1.32,1.074-2.395,2.394-2.395h11.969
			c1.32,0,2.395,1.074,2.395,2.395c0,1.319-1.074,2.394-2.395,2.394H9.016C7.696,6.622,6.622,5.548,6.622,4.229z M6.622,25.771
			c0,1.319-1.074,2.394-2.394,2.394c-1.32,0-2.394-1.074-2.394-2.394c0-1.32,1.074-2.394,2.394-2.394
			C5.548,23.378,6.622,24.451,6.622,25.771z M17.395,25.771c0,1.319-1.074,2.394-2.395,2.394c-1.32,0-2.394-1.074-2.394-2.394
			c0-1.32,1.074-2.394,2.394-2.394C16.32,23.378,17.395,24.451,17.395,25.771z M25.771,28.165c-1.319,0-2.393-1.074-2.393-2.394
			c0-1.32,1.073-2.394,2.393-2.394c1.32,0,2.395,1.073,2.395,2.394C28.166,27.091,27.092,28.165,25.771,28.165z"/>
	</g>
</g>
<g id="Layer_3" display="none">
	<g display="inline">
		<path fill="#343434" d="M15,29.961c-0.052,0-0.104-0.008-0.156-0.021c-0.118-0.032-11.813-3.343-11.813-17.133V6.023
			c0-0.331,0.268-0.599,0.599-0.599c4.432,0,8.202-1.785,10.903-5.162C14.646,0.121,14.818,0.039,15,0.039l0,0
			c0.182,0,0.354,0.082,0.467,0.224c2.701,3.377,6.47,5.162,10.903,5.162c0.331,0,0.599,0.268,0.599,0.599v6.784
			c0,13.79-11.695,17.101-11.813,17.133C15.104,29.953,15.052,29.961,15,29.961z M4.229,6.612v6.196
			c0,12.04,9.45,15.505,10.774,15.931c1.399-0.433,10.769-3.778,10.769-15.931V6.612C21.469,6.465,17.769,4.732,15,1.569
			C12.231,4.732,8.531,6.465,4.229,6.612z"/>
		<polygon fill="#343434" points="14.23,18.712 9.191,13.672 10.037,12.826 14.23,17.02 19.963,11.288 20.809,12.134 		"/>
	</g>
</g>
<g id="Layer_4" display="none">
	<g display="inline">
		<path fill="#343434" d="M26.969,29.961H3.031c-0.227,0-0.434-0.128-0.535-0.331c-0.102-0.202-0.08-0.445,0.057-0.627l8.354-11.142
			V10.28h-1.78V9.084h2.378c0.331,0,0.599,0.268,0.599,0.599v8.377c0,0.13-0.042,0.256-0.12,0.359L4.228,28.764h21.543
			l-7.755-10.345c-0.078-0.104-0.12-0.229-0.12-0.359V9.683c0-0.331,0.269-0.599,0.599-0.599h2.379v1.196h-1.78v7.581l8.354,11.142
			c0.137,0.182,0.158,0.425,0.057,0.627C27.402,29.833,27.195,29.961,26.969,29.961z"/>
		<path fill="#343434" d="M19.755,6.023c-1.641,0-2.975-1.343-2.975-2.992c0-1.65,1.334-2.992,2.975-2.992
			c1.642,0,2.978,1.342,2.978,2.992C22.732,4.681,21.396,6.023,19.755,6.023z M19.755,1.235c-0.98,0-1.778,0.806-1.778,1.796
			c0,0.989,0.798,1.795,1.778,1.795c0.982,0,1.78-0.806,1.78-1.795C21.535,2.041,20.737,1.235,19.755,1.235z"/>
		<path fill="#343434" d="M13.812,8.417c-0.986,0-1.788-0.806-1.788-1.795c0-0.99,0.802-1.796,1.788-1.796
			c0.985,0,1.787,0.806,1.787,1.796C15.599,7.611,14.797,8.417,13.812,8.417z M13.812,6.023c-0.326,0-0.591,0.268-0.591,0.599
			c0,0.33,0.265,0.598,0.591,0.598s0.59-0.268,0.59-0.598C14.402,6.291,14.137,6.023,13.812,6.023z"/>
	</g>
</g>
</svg>
